<svg width="42" height="33" viewBox="0 0 42 33" fill="none" xmlns="http://www.w3.org/2000/svg">
<path d="M35.578 2.76374C32.8592 1.47262 29.9522 0.534294 26.9131 0C26.5398 0.684946 26.1037 1.60621 25.8031 2.33908C22.5724 1.84592 19.3714 1.84592 16.2 2.33908C15.8994 1.60621 15.4534 0.684946 15.0769 0C12.0344 0.534294 9.12405 1.47607 6.40534 2.77058C0.921622 11.1816 -0.56492 19.3836 0.178354 27.4692C3.81544 30.226 7.34021 31.9007 10.8055 32.9966C11.6611 31.8014 12.4242 30.5308 13.0816 29.1918C11.8296 28.7089 10.6304 28.1131 9.4974 27.4212C9.798 27.1952 10.092 26.9589 10.3761 26.7157C17.2868 29.9966 24.7956 29.9966 31.6238 26.7157C31.9112 26.9589 32.2051 27.1952 32.5024 27.4212C31.3661 28.1165 30.1636 28.7123 28.9117 29.1953C29.569 30.5308 30.3289 31.8049 31.1877 33C34.6564 31.9041 38.1844 30.2295 41.8215 27.4692C42.6936 18.0959 40.3317 9.96922 35.578 2.76374ZM14.023 22.4966C11.9485 22.4966 10.2472 20.5308 10.2472 18.137C10.2472 15.7431 11.9122 13.774 14.023 13.774C16.134 13.774 17.8352 15.7397 17.7989 18.137C17.8021 20.5308 16.134 22.4966 14.023 22.4966ZM27.9768 22.4966C25.9022 22.4966 24.2009 20.5308 24.2009 18.137C24.2009 15.7431 25.8658 13.774 27.9768 13.774C30.0877 13.774 31.789 15.7397 31.7527 18.137C31.7527 20.5308 30.0877 22.4966 27.9768 22.4966Z" fill="gray"/>
</svg>
