<svg width="44" height="43" viewBox="0 0 44 43" fill="none" xmlns="http://www.w3.org/2000/svg">
<path fill-rule="evenodd" clip-rule="evenodd" d="M21.579 0C33.4968 0 43.158 9.66127 43.158 21.579C43.158 32.6118 34.878 41.7095 24.1933 43V28.1733H30.0309L30.0309 28.1732L30.2023 27.2399L31.2418 21.5791H31.2418L31.2418 21.579H24.1933V19.2469C24.1933 17.5045 24.5351 16.2983 25.3192 15.5276C25.564 15.287 25.8519 15.0888 26.1861 14.93C26.922 14.5804 27.882 14.4219 29.0988 14.4219C29.5109 14.4219 29.8929 14.4257 30.2363 14.4332C30.4129 14.4371 30.5792 14.4419 30.7342 14.4478C31.0815 14.461 31.3717 14.4791 31.5918 14.5023V8.52458C31.2299 8.42404 30.672 8.32352 30.0439 8.23713C29.7199 8.19258 29.3773 8.15178 29.0332 8.11669C28.2655 8.03837 27.4907 7.98842 26.9007 7.98842C24.1967 7.98842 22.0392 8.46717 20.3987 9.45294C18.003 10.8924 16.7096 13.413 16.426 17.1028C16.386 17.6243 16.366 18.1692 16.366 18.7376V21.579H11.9163V21.5791H11.9163V28.1733H16.366L16.366 42.5226C6.967 40.1907 0 31.6992 0 21.579C0 9.66127 9.66127 0 21.579 0Z" fill="gray"/>
</svg>
