<svg width="24" height="24" viewBox="0 0 554 701" fill="none" xmlns="http://www.w3.org/2000/svg">
                                 <path opacity="0.986" fill-rule="evenodd" clip-rule="evenodd" d="M368 0.554865C417.167 -3.34594 457.667 13.3208 489.5 50.5549C515.094 83.7589 532.094 121.092 540.5 162.555C554.382 225.46 556.715 288.793 547.5 352.555C545.035 366.716 541.868 380.716 538 394.555C544.552 410.378 549.385 426.711 552.5 443.555C553.78 458.39 552.78 473.056 549.5 487.555C545.341 501.537 540.341 515.204 534.5 528.555C516.5 567.888 498.5 607.222 480.5 646.555C464.403 670.809 442.903 677.309 416 666.055C408.193 660.964 402.36 654.131 398.5 645.555C386.609 616.773 374.442 588.106 362 559.555C279.791 565.263 207.791 541.263 146 487.555C117.655 505.398 88.655 522.232 59 538.055C28.811 544.71 9.31102 533.21 0.500025 503.555C-0.166675 496.555 -0.166675 489.555 0.500025 482.555C10.7057 435.86 21.039 389.193 31.5 342.555C36.8354 319.549 47.1688 299.216 62.5 281.555C75.254 269.514 89.254 259.18 104.5 250.555C138.951 168.158 191.785 99.9919 263 46.0549C294.288 22.2396 329.288 7.07286 368 0.554865ZM300 114.555C317.691 114.902 333.025 121.069 346 133.055C382.019 169.14 391.519 211.307 374.5 259.555C360.585 288.594 338.085 298.761 307 290.055C261.061 270.777 239.894 236.277 243.5 186.555C246.623 161.802 257.456 141.302 276 125.055C283.252 119.59 291.252 116.09 300 114.555ZM489 180.555C495.596 180.437 500.763 183.103 504.5 188.555C520.254 231.779 511.754 269.613 479 302.055C473.872 306.509 468.205 310.176 462 313.055C451.324 317.164 443.157 314.331 437.5 304.555C423.107 257.07 435.274 217.903 474 187.055C478.867 184.281 483.867 182.114 489 180.555ZM126 272.555C142.15 363.216 194.15 422.716 282 451.055C347.391 469.932 410.724 464.599 472 435.055C486.935 426.121 498.435 413.954 506.5 398.555C515.675 417.244 521.508 436.911 524 457.555C521.852 477.833 516.352 497.167 507.5 515.555C490.306 552.804 473.306 590.137 456.5 627.555C452.147 638.147 444.314 642.647 433 641.055C430.876 639.933 429.043 638.433 427.5 636.555C415.129 606.316 402.629 576.149 390 546.055C407.92 534.815 424.087 521.315 438.5 505.555C443.393 498.993 447.893 492.159 452 485.055C450.592 484.74 449.259 485.073 448 486.055C418.776 510.251 385.109 523.918 347 527.055C274.291 531.496 212.791 507.663 162.5 455.555C141.662 431.883 127.662 404.549 120.5 373.555C117.506 386.101 117.173 398.767 119.5 411.555C122.514 428.238 126.514 444.571 131.5 460.555C104.083 477.181 76.583 493.681 49 510.055C36.4243 511.328 29.7576 505.494 29 492.555C38.1667 450.555 47.3333 408.555 56.5 366.555C60.1627 346.558 67.163 327.892 77.5 310.555C81.633 305.421 86.133 300.587 91 296.055C102.387 287.703 114.054 279.869 126 272.555Z" fill="white"></path>
                                <path opacity="0.984" fill-rule="evenodd" clip-rule="evenodd" d="M151 527.555C156.689 527.144 162.022 528.311 167 531.055C210.235 569.967 260.902 586.8 319 581.555C333.036 583.076 339.536 590.742 338.5 604.555C330.561 629.038 322.228 653.371 313.5 677.555C305.032 683.596 296.199 684.096 287 679.055C280.964 671.822 275.797 663.988 271.5 655.555C270.459 653.47 268.959 651.803 267 650.555C248.518 666.536 230.185 682.702 212 699.055C199.883 703.461 190.383 700.294 183.5 689.555C178.319 665.166 172.985 640.832 167.5 616.555C157.141 621.841 146.308 625.841 135 628.555C125.455 627.51 118.955 622.51 115.5 613.555C114.833 611.555 114.833 609.555 115.5 607.555C123.56 582.037 132.394 556.87 142 532.055C144.824 529.976 147.824 528.476 151 527.555Z" fill="white"></path>
                            </svg>