<svg width="43" height="43" viewBox="0 0 43 43" fill="none" xmlns="http://www.w3.org/2000/svg">
<path d="M21.6251 3.85268C27.3344 3.85268 28.0106 3.87449 30.2655 3.97736C32.3502 4.0725 33.4823 4.42075 34.2358 4.71357C35.1645 5.05634 36.0046 5.6029 36.6943 6.31305C37.4045 7.00275 37.951 7.84284 38.2938 8.77156C38.5866 9.525 38.9349 10.6572 39.03 12.7419C39.1329 14.9966 39.1547 15.6728 39.1547 21.3822C39.1547 27.0916 39.1329 27.7677 39.03 30.0226C38.9348 32.1073 38.5865 33.2394 38.2938 33.9929C37.9381 34.915 37.3932 35.7525 36.6943 36.4514C35.9954 37.1503 35.1579 37.6951 34.2358 38.0509C33.4823 38.3437 32.3502 38.692 30.2655 38.7871C28.0112 38.89 27.335 38.9118 21.6251 38.9118C15.9153 38.9118 15.2393 38.89 12.9848 38.7871C10.9001 38.6919 9.768 38.3436 9.01447 38.0509C8.08575 37.7081 7.24566 37.1615 6.55596 36.4514C5.84581 35.7617 5.29926 34.9216 4.95648 33.9929C4.66366 33.2394 4.31533 32.1073 4.22027 30.0226C4.1174 27.7679 4.09559 27.0916 4.09559 21.3822C4.09559 15.6728 4.1174 14.9968 4.22027 12.7419C4.31541 10.6572 4.66366 9.52509 4.95648 8.77156C5.29929 7.8428 5.8459 7.00268 6.55613 6.31297C7.24584 5.60281 8.08593 5.05626 9.01464 4.71349C9.76808 4.42066 10.9002 4.07234 12.985 3.97727C15.2397 3.87441 15.9159 3.85259 21.6253 3.85259M21.6253 0C15.8183 0 15.0899 0.0246139 12.8096 0.128672C10.5337 0.232559 8.97942 0.59396 7.61937 1.12257C6.19266 1.65946 4.90024 2.5011 3.83222 3.5888C2.74427 4.65675 1.9024 5.94918 1.36531 7.37595C0.837124 8.73608 0.475723 10.2903 0.37226 12.5663C0.267778 14.8465 0.243164 15.5749 0.243164 21.382C0.243164 27.189 0.267778 27.9174 0.37226 30.1977C0.476148 32.4736 0.837548 34.0278 1.36615 35.3879C1.90305 36.8146 2.74469 38.107 3.83239 39.175C4.9004 40.2628 6.19283 41.1044 7.61954 41.6413C8.97967 42.1699 10.5339 42.5313 12.8098 42.6352C15.0904 42.7392 15.8185 42.7638 21.6255 42.7638C27.4324 42.7638 28.1609 42.7392 30.4412 42.6352C32.7171 42.5313 34.2714 42.1699 35.6314 41.6413C37.0518 41.0919 38.3417 40.2519 39.4186 39.1751C40.4954 38.0982 41.3354 36.8083 41.8848 35.3879C42.4134 34.0278 42.7748 32.4735 42.8787 30.1977C42.9827 27.9171 43.0074 27.1889 43.0074 21.382C43.0074 15.575 42.9827 14.8465 42.8787 12.5663C42.7748 10.2903 42.4134 8.73608 41.8848 7.37604C41.3479 5.94932 40.5063 4.6569 39.4186 3.58888C38.3505 2.50097 37.058 1.65915 35.6311 1.12214C34.271 0.59396 32.7168 0.232559 30.4408 0.129096C28.1606 0.0246139 27.4322 0 21.6251 0H21.6253Z" fill="gray"/>
<path d="M21.625 10.402C19.4533 10.402 17.3305 11.0459 15.5248 12.2524C13.7192 13.4589 12.3119 15.1738 11.4808 17.1801C10.6498 19.1864 10.4323 21.3941 10.856 23.524C11.2797 25.6539 12.3254 27.6103 13.861 29.1459C15.3965 30.6815 17.353 31.7272 19.4829 32.1509C21.6128 32.5745 23.8205 32.3571 25.8268 31.5261C27.8331 30.695 29.548 29.2877 30.7545 27.482C31.9609 25.6764 32.6049 23.5535 32.6049 21.3819C32.6049 18.4699 31.4481 15.6771 29.389 13.6179C27.3298 11.5588 24.537 10.402 21.625 10.402ZM21.625 28.5092C20.2153 28.5092 18.8374 28.0911 17.6653 27.308C16.4932 26.5248 15.5797 25.4117 15.0403 24.1093C14.5009 22.807 14.3597 21.374 14.6347 19.9914C14.9098 18.6089 15.5886 17.3389 16.5853 16.3422C17.5821 15.3454 18.8521 14.6666 20.2346 14.3916C21.6172 14.1166 23.0502 14.2577 24.3526 14.7972C25.6549 15.3366 26.768 16.2502 27.5512 17.4222C28.3343 18.5943 28.7523 19.9723 28.7523 21.3819C28.7523 23.2722 28.0014 25.085 26.6647 26.4217C25.3281 27.7583 23.5152 28.5092 21.625 28.5092Z" fill="gray"/>
<path d="M33.0389 12.5339C34.456 12.5339 35.6047 11.3852 35.6047 9.96814C35.6047 8.55109 34.456 7.40234 33.0389 7.40234C31.6219 7.40234 30.4731 8.55109 30.4731 9.96814C30.4731 11.3852 31.6219 12.5339 33.0389 12.5339Z" fill="gray"/>
</svg>
