<svg width="43" height="43" viewBox="0 0 43 43" fill="none" xmlns="http://www.w3.org/2000/svg">
<path fill-rule="evenodd" clip-rule="evenodd" d="M0 3.07333C0 1.37644 1.41048 0 3.15049 0H39.4824C41.2224 0 42.6329 1.37644 42.6329 3.07333V39.8301C42.6329 41.5275 41.2224 42.9034 39.4824 42.9034H3.15049C1.41048 42.9034 0 41.5275 0 39.8301V3.07333ZM12.9233 35.9146V16.5413H6.48403V35.9146H12.9233ZM9.70366 13.8962C11.9492 13.8962 13.3468 12.4086 13.3468 10.5494C13.305 8.64844 11.9492 7.20206 9.74626 7.20206C7.54356 7.20206 6.10337 8.64844 6.10337 10.5494C6.10337 12.4086 7.50072 13.8962 9.66169 13.8962H9.70366ZM22.9256 35.9146H16.4863C16.4863 35.9146 16.571 18.3592 16.4865 16.5413H22.9258V19.2842C22.9112 19.3066 22.8969 19.3289 22.8828 19.3509H22.9258V19.2842C23.7815 17.9641 25.3131 16.0867 28.7289 16.0867C32.9655 16.0867 36.1423 18.8556 36.1423 24.8062V35.9146H29.7036V25.5503C29.7036 22.9459 28.7715 21.1694 26.4414 21.1694C24.6625 21.1694 23.603 22.3675 23.1375 23.5244C22.9674 23.9383 22.9256 24.5167 22.9256 25.0957V35.9146Z" fill="gray"/>
</svg>
